curl
version=1
nRows=338
nColumns=3
inDegrees=yes
endheader
time	r_shoulder_elev	r_elbow_flex
0.0000	17.804256	7.079788
0.0100	17.831136	7.081645
0.0200	17.857964	7.083768
0.0300	17.884598	7.086151
0.0400	17.910897	7.088780
0.0500	17.936726	7.091639
0.0600	17.961955	7.094706
0.0700	17.986463	7.097953
0.0800	18.010136	7.101346
0.0900	18.032869	7.104848
0.1000	18.054571	7.108415
0.1100	18.075160	7.111997
0.1200	18.094569	7.115542
0.1300	18.112741	7.118992
0.1400	18.129636	7.122285
0.1500	18.145224	7.125357
0.1600	18.159490	7.128140
0.1700	18.172435	7.130565
0.1800	18.184068	7.132564
0.1900	18.194414	7.134066
0.2000	18.203511	7.135006
0.2100	18.211403	7.135317
0.2200	18.218150	7.134939
0.2300	18.223818	7.133816
0.2400	18.228481	7.131900
0.2500	18.232222	7.129147
0.2600	18.235126	7.125527
0.2700	18.237285	7.121014
0.2800	18.238793	7.115599
0.2900	18.239745	7.109279
0.3000	18.240237	7.102069
0.3100	18.240362	7.093991
0.3200	18.240212	7.085083
0.3300	18.239876	7.075396
0.3400	18.239435	7.064990
0.3500	18.238968	7.053939
0.3600	18.238547	7.042324
0.3700	18.238234	7.030235
0.3800	18.238086	7.017770
0.3900	18.238152	7.005027
0.4000	18.238469	6.992111
0.4100	18.239070	6.979123
0.4200	18.239977	6.966165
0.4300	18.241201	6.953332
0.4400	18.242748	6.940716
0.4500	18.244614	6.928400
0.4600	18.246787	6.916456
0.4700	18.249248	6.904947
0.4800	18.251971	6.893926
0.4900	18.254924	6.883430
0.5000	18.258069	6.873486
0.5100	18.261364	6.864108
0.5200	18.264764	6.855296
0.5300	18.268220	6.847041
0.5400	18.271682	6.839324
0.5500	18.275099	6.832118
0.5600	18.278421	6.825389
0.5700	18.281598	6.819100
0.5800	18.284583	6.813209
0.5900	18.287333	6.807678
0.6000	18.289808	6.802469
0.6100	18.291973	6.797549
0.6200	18.293799	6.792893
0.6300	18.295261	6.788484
0.6400	18.296343	6.784316
0.6500	18.297036	6.780394
0.6600	18.297335	6.776738
0.6700	18.297246	6.773379
0.6800	18.296779	6.770365
0.6900	18.295953	6.767753
0.7000	18.294791	6.765617
0.7100	18.293324	6.764039
0.7200	18.291587	6.763111
0.7300	18.289619	6.762933
0.7400	18.287462	6.763610
0.7500	18.285163	6.765248
0.7600	18.282766	6.767955
0.7700	18.280318	6.771832
0.7800	18.277864	6.776974
0.7900	18.275445	6.783468
0.8000	18.273101	6.791384
0.8100	18.270866	6.800779
0.8200	18.268769	6.811690
0.8300	18.266834	6.824135
0.8400	18.265078	6.838110
0.8500	18.263509	6.853587
0.8600	18.262130	6.870515
0.8700	18.260938	6.888820
0.8800	18.259922	6.908403
0.8900	18.259064	6.929144
0.9000	18.258342	6.950901
0.9100	18.257730	6.973514
0.9200	18.257199	6.996802
0.9300	18.256717	7.020574
0.9400	18.256252	7.044624
0.9500	18.255776	7.068735
0.9600	18.255261	7.092687
0.9700	18.254685	7.116255
0.9800	18.254033	7.139212
0.9900	18.253295	7.161335
1.0000	18.252473	7.182406
1.0100	18.251577	7.202215
1.0200	18.250627	7.220564
1.0300	18.249655	7.237265
1.0400	18.248703	7.252150
1.0500	18.247825	7.265066
1.0600	18.247084	7.275882
1.0700	18.246552	7.284488
1.0800	18.246313	7.290798
1.0900	18.246453	7.294752
1.1000	18.247067	7.296316
1.1100	18.248254	7.295485
1.1200	18.250113	7.292283
1.1300	18.252747	7.286764
1.1400	18.256253	7.279013
1.1500	18.260728	7.269148
1.1600	18.266263	7.257319
1.1700	18.272942	7.243708
1.1800	18.280841	7.228530
1.1900	18.290026	7.212034
1.2000	18.300554	7.194501
1.2100	18.312467	7.176241
1.2200	18.325797	7.157598
1.2300	18.340562	7.138940
1.2400	18.356769	7.120664
1.2500	18.374410	7.103190
1.2600	18.393465	7.086957
1.2700	18.413903	7.072420
1.2800	18.435682	7.060048
1.2900	18.458750	7.050314
1.3000	18.483045	7.043692
1.3100	18.508501	7.040653
1.3200	18.535043	7.041654
1.3300	18.562595	7.047135
1.3400	18.591075	7.057509
1.3500	18.620403	7.073157
1.3600	18.650499	7.094420
1.3700	18.681285	7.121591
1.3800	18.712687	7.154913
1.3900	18.744636	7.194568
1.4000	18.777070	7.240676
1.4100	18.809931	7.293290
1.4200	18.843173	7.352392
1.4300	18.876755	7.417894
1.4400	18.910645	7.489632
1.4500	18.944818	7.567372
1.4600	18.979256	7.650809
1.4700	19.013948	7.739570
1.4800	19.048887	7.833215
1.4900	19.084071	7.931246
1.5000	19.119498	8.033109
1.5100	19.155171	8.138201
1.5200	19.191088	8.245876
1.5300	19.227248	8.355450
1.5400	19.263643	8.466211
1.5500	19.300265	8.577426
1.5600	19.337096	8.688345
1.5700	19.374111	8.798213
1.5800	19.411281	8.906276
1.5900	19.448565	9.011790
1.6000	19.485916	9.114028
1.6100	19.523275	9.212287
1.6200	19.560578	9.305903
1.6300	19.597749	9.394249
1.6400	19.634708	9.476752
1.6500	19.671364	9.552894
1.6600	19.707620	9.622222
1.6700	19.743371	9.684353
1.6800	19.778509	9.738981
1.6900	19.812919	9.785878
1.7000	19.846480	9.824900
1.7100	19.879070	9.855991
1.7200	19.910563	9.879180
1.7300	19.940832	9.894583
1.7400	19.969749	9.902403
1.7500	19.997187	9.902927
1.7600	20.023022	9.896522
1.7700	20.047131	9.883631
1.7800	20.069401	9.864769
1.7900	20.089721	9.840516
1.8000	20.107990	9.811508
1.8100	20.124118	9.778433
1.8200	20.138025	9.742018
1.8300	20.149645	9.703025
1.8400	20.158924	9.662238
1.8500	20.165828	9.620454
1.8600	20.170335	9.578477
1.8700	20.172444	9.537107
1.8800	20.172171	9.497129
1.8900	20.169553	9.459311
1.9000	20.164647	9.424395
1.9100	20.157528	9.393090
1.9200	20.148295	9.366070
1.9300	20.137065	9.343973
1.9400	20.123975	9.327400
1.9500	20.109183	9.316914
1.9600	20.092862	9.313046
1.9700	20.075205	9.316296
1.9800	20.056419	9.327145
1.9900	20.036723	9.346056
2.0000	20.016349	9.373488
2.0100	19.995537	9.409903
2.0200	19.974533	9.455781
2.0300	19.953584	9.511627
2.0400	19.932939	9.577985
2.0500	19.912843	9.655453
2.0600	19.893533	9.744694
2.0700	19.875238	9.846446
2.0800	19.858171	9.961537
2.0900	19.842530	10.090895
2.1000	19.828492	10.235559
2.1100	19.816213	10.396686
2.1200	19.805823	10.575561
2.1300	19.797424	10.773605
2.1400	19.791091	10.992378
2.1500	19.786867	11.233580
2.1600	19.784764	11.499056
2.1700	19.784766	11.790793
2.1800	19.786824	12.110918
2.1900	19.790862	12.461687
2.2000	19.796777	12.845484
2.2100	19.804442	13.264801
2.2200	19.813710	13.722232
2.2300	19.824419	14.220447
2.2400	19.836393	14.762182
2.2500	19.849452	15.350207
2.2600	19.863415	15.987307
2.2700	19.878108	16.676250
2.2800	19.893368	17.419758
2.2900	19.909052	18.220475
2.3000	19.925043	19.080934
2.3100	19.941257	20.003517
2.3200	19.957648	20.990424
2.3300	19.974217	22.043632
2.3400	19.991017	23.164862
2.3500	20.008156	24.355540
2.3600	20.025806	25.616764
2.3700	20.044201	26.949269
2.3800	20.063647	28.353395
2.3900	20.084519	29.829055
2.4000	20.107262	31.375712
2.4100	20.132396	32.992353
2.4200	20.160509	34.677467
2.4300	20.192258	36.429034
2.4400	20.228367	38.244510
2.4500	20.269619	40.120828
2.4600	20.316854	42.054396
2.4700	20.370960	44.041109
2.4800	20.432867	46.076361
2.4900	20.503542	48.155068
2.5000	20.583973	50.271699
2.5100	20.675166	52.420312
2.5200	20.778131	54.594590
2.5300	20.893874	56.787896
2.5400	21.023384	58.993322
2.5500	21.167624	61.203747
2.5600	21.327516	63.411897
2.5700	21.503934	65.610409
2.5800	21.697690	67.791894
2.5900	21.909525	69.949007
2.6000	22.140097	72.074506
2.6100	22.389970	74.161325
2.6200	22.659608	76.202628
2.6300	22.949362	78.191880
2.6400	23.259467	80.122899
2.6500	23.590031	81.989917
2.6600	23.941029	83.787632
2.6700	24.312300	85.511261
2.6800	24.703547	87.156589
2.6900	25.114326	88.720012
2.7000	25.544054	90.198582
2.7100	25.992009	91.590043
2.7200	26.457328	92.892871
2.7300	26.939019	94.106299
2.7400	27.435964	95.230348
2.7500	27.946929	96.265848
2.7600	28.470574	97.214452
2.7700	29.005463	98.078651
2.7800	29.550082	98.861774
2.7900	30.102849	99.567989
2.8000	30.662128	100.202287
2.8100	31.226252	100.770465
2.8200	31.793531	101.279092
2.8300	32.362274	101.735472
2.8400	32.930803	102.147588
2.8500	33.497472	102.524042
2.8600	34.060679	102.873978
2.8700	34.618883	103.206998
2.8800	35.170620	103.533063
2.8900	35.714510	103.862390
2.9000	36.249270	104.205333
2.9100	36.773725	104.572259
2.9200	37.286813	104.973414
2.9300	37.787589	105.418786
2.9400	38.275228	105.917956
2.9500	38.749031	106.479958
2.9600	39.208416	107.113124
2.9700	39.652922	107.824937
2.9800	40.082203	108.621886
2.9900	40.496022	109.509328
3.0000	40.894248	110.491351
3.0100	41.276848	111.570659
3.0200	41.643877	112.748459
3.0300	41.995480	114.024369
3.0400	42.331875	115.396351
3.0500	42.653351	116.860656
3.0600	42.960262	118.411796
3.0700	43.253017	120.042545
3.0800	43.532076	121.743967
3.0900	43.797940	123.505473
3.1000	44.051148	125.314904
3.1100	44.292269	127.158657
3.1200	44.521892	128.000000
3.1300	44.740627	128.000000
3.1400	44.949089	128.000000
3.1500	45.147901	128.000000
3.1600	45.337682	128.000000
3.1700	45.519044	128.000000
3.1800	45.692584	128.000000
3.1900	45.858882	128.000000
3.2000	46.018494	128.000000
3.2100	46.171948	128.000000
3.2200	46.319741	128.000000
3.2300	46.462335	128.000000
3.2400	46.600153	128.000000
3.2500	46.733582	128.000000
3.2600	46.862969	128.000000
3.2700	46.988617	128.000000
3.2800	47.110795	128.000000
3.2900	47.229728	128.000000
3.3000	47.345610	128.000000
3.3100	47.458595	128.000000
3.3200	47.568807	128.000000
3.3300	47.676342	128.000000
3.3400	47.781265	128.000000
3.3500	47.883621	128.000000
3.3600	47.983430	128.000000
3.3700	48.080695	128.000000
